<svg width="100" height="24" viewBox="0 0 100 24" fill="none" xmlns="http://www.w3.org/2000/svg"><g opacity="0.43" clip-path="url(#clip0_2821_11001)"><path opacity="0.9" d="M44.8547 22.7649H40.9039L35.8002 6.39175H39.9166L43.0442 18.1798L46.3373 6.39175H50.2881L53.7453 18.1798L56.8728 6.39175H60.8236L55.7199 22.7649H51.7691L48.3119 10.9768L44.8547 22.7649ZM66.7474 23.0927C63.4542 23.0927 60.8204 21.1272 60.8204 18.1814C60.8204 15.2357 62.9606 13.7285 66.0881 13.2702L69.3813 12.7792C70.3686 12.6161 71.3575 12.2882 71.3575 11.1416C71.3575 9.66866 69.8766 9.01295 68.558 9.01295C66.5818 9.01295 65.2648 9.99488 65.1008 11.9604H61.15C61.15 8.35888 64.2775 6.06553 68.558 6.06553C72.8385 6.06553 75.4723 8.35724 75.4723 12.2866V22.7649H71.6855V20.7994C70.5326 22.437 68.722 23.0911 66.7474 23.0911V23.0927ZM67.5707 20.1453C69.5469 20.1453 71.5215 18.8355 71.5215 16.5438V15.0709L68.394 15.5619C66.4178 15.8571 64.9368 16.3807 64.9368 18.0183C64.9368 19.4912 66.2538 20.1469 67.5707 20.1469V20.1453ZM86.3506 23.0927C83.5855 23.0927 81.8061 21.7829 81.2469 20.801V22.7665H77.46V0.496903H81.4109V8.35561C81.9045 7.37368 83.5839 6.0639 86.349 6.0639C90.9591 6.0639 93.921 9.6654 93.921 14.5783C93.921 19.8175 90.9574 23.0927 86.349 23.0927H86.3506ZM85.6913 19.8175C88.4892 19.8175 89.9718 17.852 89.9718 14.5783C89.9718 11.9587 88.4908 9.3718 85.6913 9.3718C82.7278 9.3718 81.4109 11.9587 81.4109 14.5783C81.4109 17.1979 82.7278 19.8175 85.6913 19.8175ZM97.547 4.591C96.2301 4.591 95.2428 3.60907 95.2428 2.29928C95.2428 0.9895 96.2301 0.00756836 97.547 0.00756836C98.864 0.00756836 99.8513 0.9895 99.8513 2.29928C99.8513 3.60907 98.864 4.591 97.547 4.591ZM99.5233 22.7649H95.5725V6.39175H99.5233V22.7649Z" fill="#191919"></path><path d="M8.94165 10.6409C8.94165 8.11923 6.8867 6.07544 4.35123 6.07544C1.81575 6.07544 -0.239197 8.11923 -0.239197 10.6409C-0.239197 13.1626 1.81575 15.2064 4.35123 15.2064C6.8867 15.2064 8.94165 13.1626 8.94165 10.6409Z" fill="#191919"></path><path d="M18.1061 10.6507C18.1061 8.12899 16.0511 6.08521 13.5157 6.08521C10.9802 6.08521 8.92523 8.12899 8.92523 10.6507C8.92523 13.1724 10.9802 15.2162 13.5157 15.2162C16.0511 15.2162 18.1061 13.1724 18.1061 10.6507Z" fill="#191919"></path><path d="M27.2804 10.6409C27.2804 8.11923 25.2255 6.07544 22.69 6.07544C20.1545 6.07544 18.0995 8.11923 18.0995 10.6409C18.0995 13.1626 20.1545 15.2064 22.69 15.2064C25.2255 15.2064 27.2804 13.1626 27.2804 10.6409Z" fill="#191919"></path><path d="M22.6882 18.5386C22.6882 16.0169 20.6332 13.9731 18.0977 13.9731C15.5623 13.9731 13.5073 16.0169 13.5073 18.5386C13.5073 21.0603 15.5623 23.1041 18.0977 23.1041C20.6332 23.1041 22.6882 21.0603 22.6882 18.5386Z" fill="#191919"></path><path d="M13.5237 18.524C13.5237 16.0023 11.4688 13.9585 8.93332 13.9585C6.39785 13.9585 4.3429 16.0023 4.3429 18.524C4.3429 21.0457 6.39785 23.0895 8.93332 23.0895C11.4688 23.0895 13.5237 21.0457 13.5237 18.524Z" fill="#191919"></path></g><defs><clipPath id="clip0_2821_11001"><rect width="100" height="23.1527" fill="white"></rect></clipPath></defs></svg>