<svg width="24" height="24" viewBox="0 0 24 24" fill="none" xmlns="http://www.w3.org/2000/svg">
  <g clip-path="url(#clip0_4164_25081)">
    <path d="M15.5438 21H19.5C19.8978 21 20.2794 20.842 20.5607 20.5607C20.842 20.2794 21 19.8978 21 19.5V15.9656C20.9996 15.8426 20.9685 15.7216 20.9096 15.6135C20.8506 15.5055 20.7657 15.4139 20.6625 15.3469C20.5607 15.2766 20.4426 15.2337 20.3195 15.2222C20.1964 15.2107 20.0724 15.2311 19.9594 15.2812C19.6937 15.3862 19.4107 15.4403 19.125 15.4406C17.8875 15.4406 16.875 14.4 16.875 13.125C16.875 11.85 17.8875 10.8094 19.125 10.8094C19.4107 10.8097 19.6937 10.8638 19.9594 10.9688C20.0724 11.0189 20.1964 11.0393 20.3195 11.0278C20.4426 11.0163 20.5607 10.9734 20.6625 10.9031C20.7657 10.8361 20.8506 10.7445 20.9096 10.6365C20.9685 10.5284 20.9996 10.4074 21 10.2844V6.75C21 6.35218 20.842 5.97064 20.5607 5.68934C20.2794 5.40804 19.8978 5.25 19.5 5.25H16.1063C16.1156 5.12813 16.125 4.99687 16.125 4.875C16.125 3.97989 15.7694 3.12145 15.1365 2.48851C14.5035 1.85558 13.6451 1.5 12.75 1.5C11.8549 1.5 10.9965 1.85558 10.3635 2.48851C9.73058 3.12145 9.375 3.97989 9.375 4.875C9.375 4.99687 9.38437 5.12813 9.39375 5.25H6C5.60218 5.25 5.22064 5.40804 4.93934 5.68934C4.65804 5.97064 4.5 6.35218 4.5 6.75V9.76875L4.125 9.75C3.22989 9.75 2.37145 10.1056 1.73851 10.7385C1.10558 11.3715 0.75 12.2299 0.75 13.125C0.75 14.0201 1.10558 14.8785 1.73851 15.5115C2.37145 16.1444 3.22989 16.5 4.125 16.5L4.5 16.4813V19.5C4.5 19.8978 4.65804 20.2794 4.93934 20.5607C5.22064 20.842 5.60218 21 6 21H9.95625" fill="#4D567A"/>
  </g>
  <defs>
    <clipPath id="clip0_4164_25081">
      <rect width="24" height="24" fill="white"/>
    </clipPath>
  </defs>
</svg>
